<svg width="1em" height="1em" viewBox="0 0 80 80" fill="none" xmlns="http://www.w3.org/2000/svg">
<path d="M77.7778 57.7778C77.7778 62.6867 73.7978 66.6667 68.8889 66.6667H11.1111C6.20223 66.6667 2.22223 62.6867 2.22223 57.7778V14.0289C2.22223 9.12 15.0911 0 20 0H65.8333C72.7089 0 77.7778 5.13778 77.7778 11.9444V57.7778Z" fill="#226699"/>
<path d="M73.3334 66.6669C73.3334 71.5758 69.3534 75.5557 64.4445 75.5557H15.5556C10.6467 75.5557 6.66669 71.5758 6.66669 66.6669V13.3335C6.66669 4.18019 6.62002 4.44464 17.7778 4.44464H64.4445C69.3534 4.44464 73.3334 8.42464 73.3334 13.3335V66.6669Z" fill="#CCD6DD"/>
<path d="M68.8889 68.8887C68.8889 72.5709 65.9044 75.5553 62.2222 75.5553H8.8889C5.20667 75.5553 2.22223 72.5709 2.22223 68.8887V15.5553C2.22223 11.8731 5.20667 8.88867 8.8889 8.88867H62.2222C65.9044 8.88867 68.8889 11.8731 68.8889 15.5553V68.8887Z" fill="#E1E8ED"/>
<path d="M68.8889 71.1113C68.8889 76.0202 64.9089 80.0002 60 80.0002H13.3333C8.42446 80.0002 4.44446 76.0202 4.44446 71.1113V22.2224C4.44446 17.3135 8.42446 13.3335 13.3333 13.3335H60C64.9089 13.3335 68.8889 17.3135 68.8889 22.2224V71.1113Z" fill="#3B88C3"/>
<path d="M64.4445 71.1112C64.4445 76.0201 60.4645 80 55.5556 80H13.3333C8.42446 80 4.44446 76.0201 4.44446 71.1112V26.6667C4.44446 21.7578 8.42446 17.7778 13.3333 17.7778H56.3C61.2089 17.7778 64.4445 21.0134 64.4445 25.9223V71.1112Z" fill="#55ACEE"/>
<path d="M13.3333 13.3333C9.58223 13.3333 9.48667 9.06222 11.1111 7.22222C12.96 5.13111 15.8333 4.44444 20.9733 4.44444H24.4445V0H18.4022C9.58223 0 2.22223 5.55556 2.22223 11.9444V71.1111C2.22223 76.02 6.20223 80 11.1111 80H15.5556V13.3333H13.3333Z" fill="#226699"/>
</svg>

