<svg width="1em" height="1em" viewBox="0 0 80 80" fill="none" xmlns="http://www.w3.org/2000/svg">
<path d="M66.6667 52.9514C65.7978 53.8225 64.3933 53.8225 63.5244 52.9514L60.3822 49.8091C59.5111 48.9402 59.5111 47.5336 60.3822 46.6669L66.6667 40.3825C67.5356 39.5136 68.94 39.5136 69.8089 40.3825L72.9511 43.5247C73.8222 44.3936 73.8222 45.8002 72.9511 46.6669L66.6667 52.9514ZM33.3333 19.618C32.4645 20.4891 31.06 20.4891 30.1911 19.618L27.0489 16.4758C26.1778 15.6069 26.1778 14.2025 27.0489 13.3336L33.3333 7.04913C34.2022 6.18024 35.6067 6.18024 36.4756 7.04913L39.6178 10.1913C40.4889 11.0602 40.4889 12.4647 39.6178 13.3336L33.3333 19.618Z" fill="#66757F"/>
<path d="M4.44447 48.8888C8.88892 48.8888 28.8889 51.1111 28.8889 51.1111C28.8889 51.1111 31.1111 71.1111 31.1111 75.5555C31.1111 80 26.6667 80 24.4445 77.7777C22.2223 75.5555 15.5556 64.4444 15.5556 64.4444C15.5556 64.4444 4.44447 57.7777 2.22225 55.5555C2.71201e-05 53.3333 2.71201e-05 48.8888 4.44447 48.8888ZM8.88892 13.42C15.5556 13.3333 64.4445 15.5555 64.4445 15.5555C64.4445 15.5555 66.4978 64.4444 66.5823 71.1111C66.6667 77.7777 60.4423 80.0044 58 71.1133C55.5578 62.2222 46.6667 33.3333 46.6667 33.3333C46.6667 33.3333 15.6556 23.5177 8.8778 21.9955C2.68817e-05 20 2.22003 13.5044 8.88892 13.42Z" fill="#55ACEE"/>
<path d="M60 6.66682C64.4445 2.22237 75.5556 0.00015223 77.7778 2.22237C80 4.4446 77.7778 15.5557 73.3334 20.0002C68.8889 24.4446 31.1111 60.0002 31.1111 60.0002C31.1111 60.0002 16.6667 70.0002 13.3333 66.6668C10 63.3335 20 48.889 20 48.889C20 48.889 55.5556 11.1113 60 6.66682Z" fill="#CCD6DD"/>
<path d="M31.1111 48.8887C31.1111 48.8887 32.2222 49.9998 22.2222 59.9998C12.2222 69.9998 11.1111 68.8887 11.1111 68.8887C11.1111 68.8887 10 67.7776 20 57.7776C30 47.7776 31.1111 48.8887 31.1111 48.8887ZM64.4445 8.88873C68.1267 8.88873 71.1111 11.8732 71.1111 15.5554H72.9C73.1534 14.8554 73.3334 14.1221 73.3334 13.3332C73.3334 9.65095 70.3489 6.6665 66.6667 6.6665C65.8778 6.6665 65.1445 6.8465 64.4445 7.09984V8.88873Z" fill="#66757F"/>
</svg>

