<svg width="1em" height="1em" viewBox="0 0 24 24" fill="none" stroke="currentColor" stroke-width="2" stroke-linecap="round" stroke-linejoin="round" xmlns="http://www.w3.org/2000/svg">
<path d="M21 5V8.768"/>
<path d="M3 12C3.00002 12.4639 3.32277 12.9215 3.94288 13.3367C4.563 13.752 5.46358 14.1137 6.57386 14.3934C7.02221 14.5063 7.49981 14.6047 8 14.6874"/>
<path d="M3 5V19C2.99985 19.4311 3.27848 19.8572 3.8169 20.2492C4.35531 20.6412 5.14088 20.9899 6.12007 21.2716C7.09926 21.5532 8.24908 21.7613 9.4912 21.8814"/>
<path d="M9 7.82929C5.50442 7.41746 3 6.30622 3 5C3 3.34315 7.02944 2 12 2C16.9706 2 21 3.34315 21 5C21 6.17791 18.9634 7.19726 16 7.68816"/>
<path d="M12 10V14H16"/>
<path d="M12 14L13.535 12.395C14.109 11.8433 14.8065 11.4367 15.5694 11.2089C16.3323 10.9812 17.1386 10.9389 17.9211 11.0856C18.7037 11.2324 19.4399 11.5638 20.0684 12.0525C20.697 12.5411 21.1998 13.1728 21.535 13.895"/>
<path d="M22 22V18H18"/>
<path d="M22.0001 18L20.4651 19.605C19.891 20.1567 19.1936 20.5633 18.4307 20.7911C17.6678 21.0188 16.8615 21.0611 16.079 20.9144C15.2964 20.7676 14.5602 20.4362 13.9317 19.9475C13.3031 19.4589 12.8003 18.8272 12.4651 18.105"/>
</svg>

