<svg width="1em" height="1em" viewBox="0 0 36 36" fill="none" xmlns="http://www.w3.org/2000/svg">
<path fill-rule="evenodd" clip-rule="evenodd" d="M18 36C15.3638 36 11.8452 34.0318 8.61858 31.2696C4.01184 27.3259 0 21.7638 0 18C0 16.3486 0.772308 14.351 2.02832 12.2959C5.64004 6.38607 13.2514 0 18 0C23.2781 0 32.0927 7.88943 35.021 14.2453C35.6435 15.5963 36 16.8781 36 18C36 21.5804 32.3695 26.7884 28.0499 30.6822C24.6484 33.7486 20.8196 36 18 36ZM17.2483 21.3792C17.6482 20.8969 18.388 20.8969 18.7879 21.3792L20.2782 23.1766C20.6153 23.5832 21.2106 23.6575 21.6373 23.3462L21.7251 23.2822C22.1463 22.975 22.2608 22.3957 21.9881 21.9513L20.7668 19.9608C20.4452 19.4367 20.6684 18.7492 21.2366 18.5139L23.24 17.6844C23.7246 17.4837 23.9719 16.9428 23.8064 16.445L23.7735 16.3458C23.61 15.8539 23.0977 15.5685 22.5934 15.6883L20.4889 16.1882C19.8936 16.3296 19.3119 15.9079 19.2613 15.2981L19.0718 13.0172C19.0287 12.4988 18.5954 12.1 18.0752 12.1H17.9616C17.4412 12.1 17.0078 12.4992 16.965 13.0179L16.775 15.3237C16.7245 15.9372 16.1369 16.3598 15.5392 16.2126L13.4328 15.6937C12.933 15.5705 12.4213 15.8471 12.2504 16.3327L12.2144 16.4348C12.0381 16.9359 12.2843 17.4874 12.7752 17.6907L14.7711 18.5171C15.3366 18.7513 15.561 19.434 15.2445 19.958L14.0392 21.9534C13.7711 22.3974 13.8869 22.9727 14.3059 23.2784L14.3989 23.3462C14.8256 23.6575 15.4209 23.5832 15.758 23.1766L16.3598 22.4507L17.2483 21.3792Z" fill="currentColor"/>
</svg>

