<svg width="1em" height="1em" viewBox="0 0 36 36" fill="none" xmlns="http://www.w3.org/2000/svg">
<path d="M32.938 15.651C32.792 15.26 32.418 15 32 15H19.925L26.89 1.458C27.109 1.032 26.996 0.511 26.619 0.215C26.437 0.071 26.218 0 26 0C25.767 0 25.534 0.082 25.347 0.243L18 6.588L3.34702 19.243C3.03102 19.516 2.91702 19.957 3.06302 20.348C3.20902 20.739 3.58202 21 4.00002 21H16.075L9.11002 34.542C8.89102 34.968 9.00402 35.489 9.38102 35.785C9.56302 35.929 9.78202 36 10 36C10.233 36 10.466 35.918 10.653 35.757L18 29.412L32.653 16.757C32.97 16.484 33.083 16.043 32.938 15.651Z" fill="#FFAC33"/>
</svg>
