<svg width="1em" height="1em" viewBox="0 0 60 60" fill="none" xmlns="http://www.w3.org/2000/svg">
<path d="M57.245 28.1549L42.4133 22.6649L36.875 4.51325C36.6616 3.81325 36.0133 3.33325 35.2816 3.33325C34.55 3.33325 33.9016 3.81325 33.6883 4.51325L28.1516 22.6649L13.3183 28.1549C12.6633 28.3983 12.23 29.0199 12.23 29.7183C12.23 30.4149 12.6633 31.0399 13.3183 31.2816L28.1433 36.7699L33.6833 55.4749C33.8933 56.1816 34.5433 56.6666 35.2816 56.6666C36.0183 56.6666 36.67 56.1816 36.88 55.4733L42.42 36.7683L57.2466 31.2799C57.8983 31.0399 58.3333 30.4166 58.3333 29.7183C58.3333 29.0216 57.8983 28.3983 57.245 28.1549Z" fill="#FFAC33"/>
<path d="M23.9117 46.4901L20.055 45.0634L18.555 39.5634C18.3584 38.8367 17.7 38.3334 16.9484 38.3334C16.1967 38.3334 15.5384 38.8367 15.34 39.5617L13.84 45.0617L9.98502 46.4884C9.33002 46.7301 8.89669 47.3551 8.89669 48.0517C8.89669 48.7484 9.33002 49.3734 9.98502 49.6151L13.82 51.0367L15.3317 57.0734C15.5184 57.8134 16.1834 58.3334 16.9484 58.3334C17.7134 58.3334 18.3784 57.8134 18.565 57.0717L20.0767 51.0351L23.9117 49.6134C24.5667 49.3734 25 48.7484 25 48.0517C25 47.3551 24.5667 46.7301 23.9117 46.4901ZM16.6817 10.3851L12.7417 8.92673L11.2817 4.98506C11.04 4.33006 10.4167 3.89673 9.71835 3.89673C9.02169 3.89673 8.39835 4.33006 8.15502 4.98506L6.69669 8.92673L2.75502 10.3851C2.10002 10.6284 1.66669 11.2517 1.66669 11.9484C1.66669 12.6451 2.10002 13.2701 2.75502 13.5117L6.69669 14.9701L8.15502 18.9117C8.39835 19.5667 9.02169 20.0001 9.71835 20.0001C10.415 20.0001 11.0384 19.5667 11.2817 18.9117L12.74 14.9701L16.6817 13.5117C17.3367 13.2684 17.77 12.6451 17.77 11.9484C17.77 11.2517 17.3367 10.6284 16.6817 10.3851Z" fill="#FFCC4D"/>
</svg>
