<svg width="1em" height="1em" viewBox="0 0 36 36" fill="none" xmlns="http://www.w3.org/2000/svg">
<path d="M30 23.8282C29.609 24.2202 28.977 24.2202 28.586 23.8282L27.172 22.4142C26.78 22.0232 26.78 21.3902 27.172 21.0002L30 18.1722C30.391 17.7812 31.023 17.7812 31.414 18.1722L32.828 19.5862C33.22 19.9772 33.22 20.6102 32.828 21.0002L30 23.8282ZM15 8.82816C14.609 9.22016 13.977 9.22016 13.586 8.82816L12.172 7.41416C11.78 7.02316 11.78 6.39116 12.172 6.00016L15 3.17216C15.391 2.78116 16.023 2.78116 16.414 3.17216L17.828 4.58616C18.22 4.97716 18.22 5.60916 17.828 6.00016L15 8.82816Z" fill="#66757F"/>
<path d="M1.99999 22.0002C3.99999 22.0002 13 23.0002 13 23.0002C13 23.0002 14 32.0002 14 34.0002C14 36.0002 12 36.0002 11 35.0002C9.99999 34.0002 6.99999 29.0002 6.99999 29.0002C6.99999 29.0002 1.99999 26.0002 0.999994 25.0002C-6.07967e-06 24.0002 -6.07967e-06 22.0002 1.99999 22.0002ZM3.99999 6.0392C6.99999 6.0002 29 7.0002 29 7.0002C29 7.0002 29.924 29.0002 29.962 32.0002C30 35.0002 27.199 36.0022 26.1 32.0012C25.001 28.0002 21 15.0002 21 15.0002C21 15.0002 7.04499 10.5832 3.99499 9.8982C-6.19888e-06 9.0002 0.998994 6.0772 3.99999 6.0392Z" fill="#55ACEE"/>
<path d="M27 3.00022C29 1.00022 34 0.000214994 35 1.00021C36 2.00022 35 7.00021 33 9.00021C31 11.0002 14 27.0002 14 27.0002C14 27.0002 7.49997 31.5002 5.99997 30.0002C4.49997 28.5002 8.99997 22.0002 8.99997 22.0002C8.99997 22.0002 25 5.00022 27 3.00022Z" fill="#CCD6DD"/>
<path d="M14 22C14 22 14.5 22.5 9.99999 27C5.49999 31.5 4.99999 31 4.99999 31C4.99999 31 4.49999 30.5 8.99999 26C13.5 21.5 14 22 14 22ZM29 4C30.657 4 32 5.343 32 7H32.805C32.919 6.685 33 6.355 33 6C33 4.343 31.657 3 30 3C29.645 3 29.315 3.081 29 3.195V4Z" fill="#66757F"/>
</svg>
