<svg width="1em" height="1em" viewBox="0 0 36 36" fill="none" xmlns="http://www.w3.org/2000/svg">
<path d="M15.632 34.6608C14.833 34.0638 14.134 33.1768 13.597 32.0688L13.369 31.5988L12.909 31.8478C11.934 32.3758 10.996 32.7058 10.165 32.8168L9.96297 29.0608L6.32697 30.0288C6.16997 29.1748 6.20197 28.1418 6.42297 27.0068L6.52597 26.4818L5.99397 26.4158C4.75197 26.2618 3.68797 25.8908 2.88997 25.3358L4.41097 22.4188L1.42297 20.8958C1.74197 19.9518 2.37097 19.0138 3.25697 18.1608L3.63397 17.7978L3.25497 17.4378C2.45197 16.6738 1.84697 15.8838 1.48497 15.1268L4.99497 13.7738L2.94997 10.6148C3.68997 10.2128 4.64297 9.92876 5.73897 9.78276L6.25797 9.71476L6.16697 9.20076C5.95197 7.98976 5.99497 6.86276 6.29097 5.91276L9.59897 6.43576L10.123 3.12776C11.111 3.14076 12.203 3.45376 13.287 4.03476L13.749 4.28276L13.975 3.80976C14.454 2.80676 15.019 1.98576 15.628 1.40576L18 4.32576L20.372 1.40576C20.981 1.98576 21.547 2.80676 22.025 3.80976L22.251 4.28276L22.713 4.03576C23.798 3.45476 24.891 3.14176 25.877 3.12976L26.4 6.43776L29.71 5.91276C30.006 6.86376 30.05 7.99076 29.834 9.20076L29.742 9.71576L30.26 9.78476C31.355 9.92976 32.308 10.2148 33.048 10.6168L31.002 13.7728L34.513 15.1278C34.152 15.8848 33.547 16.6748 32.743 17.4388L32.364 17.7988L32.741 18.1618C33.629 19.0158 34.257 19.9548 34.576 20.8978L31.592 22.4178L33.113 25.4018C32.301 25.9758 31.242 26.3658 30.019 26.5358L29.501 26.6078L29.597 27.1218C29.798 28.2108 29.823 29.2048 29.67 30.0308L26.036 29.0608L25.832 32.8178C25.002 32.7078 24.064 32.3778 23.09 31.8498L22.631 31.6008L22.403 32.0708C21.864 33.1778 21.166 34.0648 20.367 34.6618L18 32.2928L15.632 34.6608Z" fill="white"/>
<path d="M7.092 10.6779C6.562 9.18891 6.394 7.70791 6.66 6.47791L9.028 6.85291L10.015 7.00891L10.172 6.02091L10.547 3.65291C11.808 3.77991 13.16 4.39591 14.409 5.35891C14.527 5.02191 14.653 4.69591 14.791 4.39191C13.24 3.25691 11.568 2.62891 10.061 2.62891C9.938 2.62891 9.816 2.63291 9.695 2.64191L9.184 5.86491L5.96 5.35391C5.36 6.84091 5.395 8.76891 6.045 10.7469C6.38 10.7099 6.729 10.6859 7.092 10.6779ZM21.593 5.35891C22.841 4.39691 24.193 3.78091 25.453 3.65391L25.829 6.02191L25.985 7.00991L26.972 6.85291L29.341 6.47691C29.607 7.70691 29.439 9.18691 28.909 10.6769C29.27 10.6859 29.62 10.7089 29.955 10.7469C30.606 8.76891 30.64 6.84091 30.04 5.35291L26.815 5.86491L26.304 2.64091C26.184 2.63291 26.062 2.62891 25.939 2.62891C24.432 2.62891 22.76 3.25691 21.209 4.39091C21.349 4.69691 21.475 5.02191 21.593 5.35891ZM7.368 26.9999H7.403C7.47 26.9999 7.56 26.3959 7.663 26.0529C7.565 26.0569 7.466 26.0989 7.369 26.0989C5.873 26.0989 4.543 25.7959 3.539 25.2089L4.628 23.0809L5.082 22.1939L4.191 21.7419L2.055 20.6539C2.563 19.5029 3.57 18.4039 4.873 17.5109C4.586 17.2919 4.312 17.0699 4.063 16.8419C2.376 18.0589 1.217 19.5969 0.828003 21.1519L3.736 22.6349L2.254 25.4779C3.475 26.5009 5.303 26.9999 7.368 26.9999ZM35.174 21.1539C34.784 19.5989 33.626 18.0609 31.94 16.8429C31.69 17.0709 31.417 17.2939 31.13 17.5119C32.434 18.4049 33.44 19.5039 33.947 20.6569L31.811 21.7449L30.92 22.1979L31.374 23.0899L32.463 25.2269C31.459 25.8139 30.131 26.1309 28.635 26.1309C28.536 26.1309 28.436 26.1209 28.336 26.1179C28.439 26.4619 28.528 26.8009 28.596 27.1289L28.635 27.1309C30.701 27.1309 32.527 26.5679 33.747 25.5439L32.265 22.6359L35.174 21.1539ZM22.521 30.3359C22.074 31.8529 21.34 33.1479 20.402 33.9869L18.707 32.2929L18 31.5859L17.293 32.2929L15.598 33.9869C14.66 33.1479 13.925 31.8509 13.478 30.3349C13.182 30.5409 12.885 30.7319 12.592 30.8979C13.228 32.8779 14.333 34.4569 15.692 35.3069L18 32.9999L20.308 35.3079C21.666 34.4569 22.772 32.8799 23.409 30.8999C23.114 30.7319 22.818 30.5409 22.521 30.3359Z" fill="#EA596E"/>
<path d="M20.118 5.68289C20.544 6.82889 20.866 8.27889 20.959 9.96689L21.159 13.6499L24.723 12.7039C26.043 12.3529 27.378 12.1679 28.583 12.1679C28.743 12.1679 28.901 12.1709 29.057 12.1779L27.23 14.9969L30.369 16.2079C29.411 16.9669 28.132 17.7219 26.555 18.3309L23.114 19.6589L25.115 22.7579C26.033 24.1779 26.624 25.5399 26.953 26.7179L23.709 25.8529L23.527 29.2099C22.508 28.5329 21.395 27.5499 20.329 26.2369L18 23.3739L15.672 26.2359C14.606 27.5479 13.493 28.5309 12.474 29.2079L12.294 25.8539L9.04603 26.7179C9.37503 25.5399 9.96703 24.1779 10.885 22.7569L12.889 19.6579L9.44703 18.3299C7.87003 17.7209 6.59103 16.9669 5.63303 16.2079L8.76803 14.9999L6.94103 12.1769C7.09603 12.1709 7.25403 12.1669 7.41403 12.1669C8.62003 12.1669 9.95503 12.3519 11.275 12.7029L14.839 13.6499L15.041 9.96689C15.133 8.27889 15.456 6.82889 15.881 5.68289L18 8.29189L20.118 5.68289ZM20.308 0.691895L18 3.53289L15.692 0.691895C13.703 2.22389 12.271 5.68389 12.046 9.80389C10.429 9.37389 8.85403 9.16689 7.41403 9.16689C5.30403 9.16689 3.48503 9.61189 2.25303 10.4559L4.24203 13.5289L0.827026 14.8449C1.66903 17.2109 4.51703 19.6419 8.36703 21.1279C6.12603 24.5929 5.25103 28.2339 5.96003 30.6439L9.49703 29.7029L9.69303 33.3569C12.205 33.2869 15.396 31.3299 18 28.1289C20.603 31.3299 23.796 33.2869 26.306 33.3569L26.504 29.7019L30.039 30.6449C30.749 28.2339 29.874 24.5949 27.635 21.1279C31.484 19.6429 34.331 17.2099 35.173 14.8449L31.758 13.5269L33.748 10.4569C32.515 9.61289 30.695 9.16689 28.584 9.16689C27.146 9.16689 25.571 9.37389 23.954 9.80289C23.729 5.68389 22.297 2.22389 20.308 0.691895Z" fill="#EA596E"/>
</svg>
