<svg width="1em" height="1em" viewBox="0 0 19 17" fill="none" xmlns="http://www.w3.org/2000/svg">
<path d="M10.44 10.8C10.44 7.344 11.112 4.776 12.456 3.096C13.8 1.368 15.552 0.335999 17.712 0V2.52C16.608 2.856 15.792 3.672 15.264 4.968C14.784 6.216 14.616 7.512 14.76 8.856H18.504V16.128H11.232C10.704 16.128 10.44 15.84 10.44 15.264V10.8ZM0 10.8C0 7.344 0.672 4.776 2.016 3.096C3.36 1.368 5.112 0.335999 7.272 0V2.52C6.168 2.856 5.352 3.672 4.824 4.968C4.344 6.216 4.176 7.512 4.32 8.856H8.064V16.128H0.792C0.264 16.128 0 15.84 0 15.264V10.8Z" fill="currentColor"/>
</svg>
