<svg width="1em" height="1em" viewBox="0 0 26 26" fill="none" xmlns="http://www.w3.org/2000/svg">
<path d="M13 0.5C6.0971 0.5 0.5 6.24219 0.5 13.3181C0.5 18.9821 4.08259 23.7812 9.04911 25.4777C9.11877 25.4928 9.18987 25.5003 9.26116 25.5C9.72433 25.5 9.9029 25.1596 9.9029 24.8638C9.9029 24.5569 9.89174 23.7533 9.88616 22.6819C9.47268 22.7788 9.04968 22.8294 8.625 22.8326C6.21987 22.8326 5.67299 20.9632 5.67299 20.9632C5.10379 19.4844 4.28348 19.0882 4.28348 19.0882C3.19531 18.3237 4.2779 18.3013 4.36161 18.3013H4.36719C5.62277 18.4129 6.28125 19.6295 6.28125 19.6295C6.90625 20.7232 7.7433 21.0301 8.49107 21.0301C8.98551 21.0202 9.4723 20.9062 9.91964 20.6953C10.0312 19.8694 10.3549 19.3058 10.7121 18.9821C7.93862 18.6585 5.02009 17.5591 5.02009 12.6484C5.02009 11.2478 5.50558 10.1038 6.30357 9.21094C6.17522 8.88728 5.74554 7.58147 6.42634 5.81808C6.51766 5.79623 6.61152 5.78684 6.70536 5.79018C7.15737 5.79018 8.17857 5.96317 9.86384 7.13504C11.9116 6.56211 14.0773 6.56211 16.125 7.13504C17.8103 5.96317 18.8315 5.79018 19.2835 5.79018C19.3773 5.78684 19.4712 5.79623 19.5625 5.81808C20.2433 7.58147 19.8136 8.88728 19.6853 9.21094C20.4833 10.1094 20.9688 11.2533 20.9688 12.6484C20.9688 17.5703 18.0446 18.6529 15.26 18.971C15.7065 19.3672 16.1083 20.1484 16.1083 21.3426C16.1083 23.0558 16.0915 24.4397 16.0915 24.8583C16.0915 25.1596 16.2645 25.5 16.7277 25.5C16.8027 25.5003 16.8775 25.4928 16.9509 25.4777C21.923 23.7812 25.5 18.9766 25.5 13.3181C25.5 6.24219 19.9029 0.5 13 0.5Z" fill="currentColor"/>
</svg>
