<svg width="1em" height="1em" viewBox="0 0 26 20" fill="none" xmlns="http://www.w3.org/2000/svg">
<path fill-rule="evenodd" clip-rule="evenodd" d="M3.625 1.96443C2.88533 1.96443 2.28571 2.56404 2.28571 3.30371V16.6966C2.28571 17.4362 2.88533 18.0359 3.625 18.0359H22.375C23.1147 18.0359 23.7143 17.4362 23.7143 16.6966V3.30371C23.7143 2.56404 23.1147 1.96443 22.375 1.96443H3.625ZM0.5 3.30371C0.5 1.57782 1.89911 0.178711 3.625 0.178711H22.375C24.1009 0.178711 25.5 1.57782 25.5 3.30371V16.6966C25.5 18.4225 24.1009 19.8216 22.375 19.8216H3.625C1.89911 19.8216 0.5 18.4225 0.5 16.6966V3.30371ZM4.25951 4.09484C4.56225 3.7056 5.12321 3.63548 5.51245 3.93822L13 9.76187L20.4876 3.93822C20.8768 3.63548 21.4378 3.7056 21.7405 4.09484C22.0432 4.48407 21.9731 5.04503 21.5839 5.34778L13.5482 11.5978C13.2257 11.8485 12.7743 11.8485 12.4518 11.5978L4.41612 5.34778C4.02689 5.04503 3.95677 4.48407 4.25951 4.09484Z" fill="currentColor"/>
</svg>
