<svg width="1em" viewBox="0 0 90 90" fill="none" xmlns="http://www.w3.org/2000/svg">
	<path d="M7.30035 30.7011L47.825 59.275L85.665 34.8562C76.1844 20.4855 53.7638 0 45 0C37.0536 0 17.8751 16.8469 7.30035 30.7011Z" fill="#24D6C3"/>
	<path d="M47.825 59.275L22.3743 75.6544C10.8989 65.052 0 51.393 0 45C0 41.698 2.90757 36.4575 7.30036 30.7011L47.825 59.275Z" fill="#73E5D9"/>
	<path d="M85.665 34.8561L47.825 59.2749L69.1359 74.2384C80.0388 63.8644 90 51.1118 90 44.9999C90 42.5146 88.3529 38.9312 85.665 34.8561Z" fill="#B9F2EC"/>
	<path d="M47.8251 59.275L22.3743 75.6545C31.0924 83.7094 40.1431 90 45.0001 90C50.1383 90 59.9699 82.9598 69.136 74.2384L47.8251 59.275Z" fill="#D2F7F3"/>
	<path d="M37.8954 59.75L45.0453 51.1269L52.1951 59.75L56.1773 56.8454L50.385 47.4054L60.25 43.3208L58.7114 38.6915L48.3939 41.1423L47.4889 30.25H42.6016L41.6966 41.2331L31.3791 38.6915L29.75 43.3208L39.615 47.4054L33.9132 56.8454L37.8954 59.75Z" fill="#262626"/>
</svg>
