<svg width="1em" viewBox="0 0 140 42" fill="none" xmlns="http://www.w3.org/2000/svg">
	<path d="M14.0954 16.7782C15.8068 16.7782 17.3315 17.1823 18.6694 17.9904C20.0385 18.7674 21.0965 19.8707 21.8432 21.3004C22.6211 22.6991 23.0101 24.2997 23.0101 26.1024V41.4406H16.4758V27.5476C16.4758 26.0557 16.0557 24.8436 15.2156 23.9112C14.3755 22.9788 13.2709 22.5126 11.9018 22.5126C10.4704 22.5126 9.25693 22.9632 8.26122 23.8646C7.29664 24.7659 6.81434 25.8693 6.81434 27.1746V41.4406H0V17.3377H6.81434V20.3214C7.56112 19.2336 8.57238 18.3789 9.84813 17.7573C11.1239 17.1046 12.5396 16.7782 14.0954 16.7782Z" fill="#202020"/>
	<path d="M39.0986 36.7319C40.1877 36.7319 41.3078 36.5143 42.4591 36.0792C43.6104 35.6441 44.575 35.0691 45.3529 34.3542L49.1801 38.2703C48.1222 39.3892 46.6597 40.2906 44.7928 40.9743C42.957 41.6581 41.1367 42 39.332 42C36.9672 42 34.7891 41.4561 32.7977 40.3683C30.8374 39.2805 29.2816 37.7731 28.1303 35.8461C26.979 33.9191 26.4034 31.7435 26.4034 29.3192C26.4034 26.926 26.9479 24.7815 28.037 22.8855C29.1571 20.9896 30.6662 19.4978 32.5643 18.41C34.4935 17.3222 36.6249 16.7782 38.9586 16.7782C41.4478 16.7782 43.6104 17.3532 45.4462 18.5032C47.282 19.6532 48.6823 21.316 49.6468 23.4916C50.6114 25.6672 51.0937 28.2314 51.0937 31.184H32.891C33.2022 32.8624 33.9023 34.2144 34.9913 35.24C36.1115 36.2346 37.4806 36.7319 39.0986 36.7319ZM39.0053 22.0464C37.5117 22.0464 36.2204 22.5126 35.1314 23.445C34.0423 24.3463 33.3111 25.574 32.9377 27.128H44.5594C44.2794 25.574 43.6571 24.3463 42.6925 23.445C41.7279 22.5126 40.4988 22.0464 39.0053 22.0464Z" fill="#202020"/>
	<path d="M68.791 16.7782C70.5024 16.7782 72.0271 17.1823 73.365 17.9904C74.7341 18.7674 75.7921 19.8707 76.5388 21.3004C77.3167 22.6991 77.7057 24.2997 77.7057 26.1024V41.4406H71.1714V27.5476C71.1714 26.0557 70.7513 24.8436 69.9112 23.9112C69.0711 22.9788 67.9665 22.5126 66.5974 22.5126C65.166 22.5126 63.9525 22.9632 62.9568 23.8646C61.9922 24.7659 61.5099 25.8693 61.5099 27.1746V41.4406H54.6956V17.3377H61.5099V20.3214C62.2567 19.2336 63.268 18.3789 64.5437 17.7573C65.8195 17.1046 67.2352 16.7782 68.791 16.7782Z" fill="#202020"/>
	<path d="M79.7207 17.3377H86.395L90.969 32.3495L95.7297 17.3377H101.377L106.185 32.3495L110.712 17.3377H117.386L109.218 41.4406H103.104L98.5768 26.2888L94.0495 41.4406H87.9352L79.7207 17.3377Z" fill="#202020"/>
	<path d="M127.474 16.8352L131.249 12.5185L135.024 16.8352L137.726 14.8495L134.852 9.92846L140 7.6406L138.97 4.44622L133.479 5.69807L132.965 0H129.576L129.018 5.69807L123.527 4.44622L122.497 7.6406L127.602 9.92846L124.771 14.8495L127.474 16.8352Z" fill="#202020"/>
</svg>
